<?xml version="1.0" standalone="no"?>
<!DOCTYPE svg PUBLIC "-//W3C//DTD SVG 20010904//EN"
 "http://www.w3.org/TR/2001/REC-SVG-20010904/DTD/svg10.dtd">
<svg version="1.0" xmlns="http://www.w3.org/2000/svg"
 width="500.000000pt" height="500.000000pt" viewBox="0 0 500.000000 500.000000"
 preserveAspectRatio="xMidYMid meet">
<metadata>
Created by potrace 1.14, written by Peter Selinger 2001-2017
</metadata>
<g transform="translate(0.000000,500.000000) scale(0.100000,-0.100000)"
fill="#000000" stroke="none">
<path d="M1410 4605 l0 -75 -160 0 -160 0 0 -80 0 -80 -155 0 -155 0 0 -80 0
-80 -80 0 -80 0 0 -75 0 -75 -75 0 -75 0 0 -80 0 -80 -80 0 -80 0 0 -75 0 -75
-75 0 -75 0 0 -235 0 -235 75 0 75 0 0 -705 0 -705 80 0 80 0 0 -235 0 -235
75 0 75 0 0 -80 0 -80 80 0 80 0 0 -230 0 -230 80 0 80 0 0 -80 0 -80 75 0 75
0 0 -80 0 -80 315 0 315 0 0 -75 0 -75 625 0 625 0 0 75 0 75 75 0 75 0 0 80
0 80 80 0 80 0 0 80 0 80 80 0 80 0 0 75 0 75 75 0 75 0 0 80 0 80 80 0 80 0
0 75 0 75 80 0 80 0 0 315 0 315 75 0 75 0 0 235 0 235 80 0 80 0 0 80 0 80
75 0 75 0 0 75 0 75 80 0 80 0 0 80 0 80 80 0 80 0 0 75 0 75 75 0 75 0 0 235
0 235 -75 0 -75 0 0 80 0 80 -235 0 -235 0 0 155 0 155 -80 0 -80 0 0 80 0 80
-75 0 -75 0 0 75 0 75 -80 0 -80 0 0 80 0 80 -80 0 -80 0 0 80 0 80 -75 0 -75
0 0 75 0 75 -1015 0 -1015 0 0 -75z m2030 -155 l0 -80 75 0 75 0 0 -80 0 -80
80 0 80 0 0 -75 0 -75 80 0 80 0 0 -80 0 -80 75 0 75 0 0 -155 0 -155 80 0 80
0 0 -80 0 -80 235 0 235 0 0 -235 0 -235 -80 0 -80 0 0 -75 0 -75 -80 0 -80 0
0 -80 0 -80 -75 0 -75 0 0 -75 0 -75 -80 0 -80 0 0 -80 0 -80 -75 0 -75 0 0
-235 0 -235 -80 0 -80 0 0 -315 0 -315 -80 0 -80 0 0 -75 0 -75 -75 0 -75 0 0
-80 0 -80 -80 0 -80 0 0 -75 0 -75 -80 0 -80 0 0 -80 0 -80 -75 0 -75 0 0 -80
0 -80 -625 0 -625 0 0 80 0 80 -315 0 -315 0 0 80 0 80 -75 0 -75 0 0 230 0
230 -80 0 -80 0 0 80 0 80 -80 0 -80 0 0 235 0 235 -75 0 -75 0 0 705 0 705
-80 0 -80 0 0 235 0 235 80 0 80 0 0 75 0 75 75 0 75 0 0 80 0 80 80 0 80 0 0
75 0 75 155 0 155 0 0 80 0 80 160 0 160 0 0 80 0 80 1015 0 1015 0 0 -80z"/>
<path d="M1560 4290 l0 -80 -155 0 -155 0 0 -75 0 -75 -155 0 -155 0 0 -80 0
-80 -80 0 -80 0 0 -75 0 -75 -80 0 -80 0 0 -80 0 -80 -75 0 -75 0 0 -80 0 -80
75 0 75 0 0 -700 0 -700 80 0 80 0 0 -235 0 -235 80 0 80 0 0 -80 0 -80 75 0
75 0 0 -235 0 -235 80 0 80 0 0 -75 0 -75 80 0 80 0 0 75 0 75 75 0 75 0 0
-75 0 -75 155 0 155 0 0 -80 0 -80 470 0 470 0 0 80 0 80 80 0 80 0 0 75 0 75
75 0 75 0 0 80 0 80 80 0 80 0 0 75 0 75 80 0 80 0 0 80 0 80 75 0 75 0 0 315
0 315 80 0 80 0 0 75 0 75 -80 0 -80 0 0 160 0 160 160 0 160 0 0 75 0 75 75
0 75 0 0 80 0 80 80 0 80 0 0 75 0 75 75 0 75 0 0 80 0 80 80 0 80 0 0 80 0
80 -235 0 -235 0 0 75 0 75 -75 0 -75 0 0 160 0 160 -80 0 -80 0 0 75 0 75
-80 0 -80 0 0 80 0 80 -75 0 -75 0 0 75 0 75 -80 0 -80 0 0 80 0 80 -860 0
-860 0 0 -80z m310 -1405 l0 -75 395 0 395 0 0 -80 0 -80 310 0 310 0 0 -75 0
-75 -235 0 -235 0 0 -235 0 -235 80 0 80 0 0 155 0 155 155 0 155 0 0 -235 0
-235 -235 0 -235 0 0 80 0 80 -75 0 -75 0 0 -80 0 -80 -470 0 -470 0 0 80 0
80 -80 0 -80 0 0 155 0 155 -75 0 -75 0 0 235 0 235 75 0 75 0 0 75 0 75 155
0 155 0 0 -75z m-780 -860 l0 -315 -75 0 -75 0 0 315 0 315 75 0 75 0 0 -315z
m630 -545 l0 -80 75 0 75 0 0 -80 0 -80 315 0 315 0 0 80 0 80 155 0 155 0 0
-80 0 -80 155 0 155 0 0 80 0 80 80 0 80 0 0 80 0 80 80 0 80 0 0 -80 0 -80
-80 0 -80 0 0 -80 0 -80 -80 0 -80 0 0 -75 0 -75 -155 0 -155 0 0 75 0 75
-155 0 -155 0 0 -75 0 -75 -315 0 -315 0 0 75 0 75 -75 0 -75 0 0 80 0 80 -80
0 -80 0 0 80 0 80 80 0 80 0 0 -80z"/>
<path d="M1720 2420 l0 -80 75 0 75 0 0 -155 0 -155 80 0 80 0 0 155 0 155
155 0 155 0 0 80 0 80 -310 0 -310 0 0 -80z"/>
<path d="M2500 2185 l0 -155 80 0 80 0 0 155 0 155 -80 0 -80 0 0 -155z"/>
</g>
</svg>
